<svg xmlns="http://www.w3.org/2000/svg" width="209" height="209" viewBox="0 0 209 209" fill="none">
  <g filter="url(#filter0_d_15507_8308)">
    <path fill-rule="evenodd" clip-rule="evenodd" d="M140.353 55.8985C142.918 55.8985 145.009 57.9899 145.009 60.5543V146.219C145.009 148.783 142.918 150.875 140.353 150.875H68.6557C66.0914 150.875 64 148.784 64 146.219V60.5543C64 57.9902 66.0914 55.8985 68.6557 55.8985H78.5303V60.9851C78.5303 64.9324 81.7392 68.1411 85.6865 68.1411H123.323C127.27 68.1411 130.479 64.9321 130.479 60.9851V55.8985H140.353ZM105.703 110.569H127.696C129.091 110.569 130.222 109.438 130.222 108.043C130.222 106.648 129.091 105.517 127.696 105.517H105.703C104.308 105.517 103.177 106.648 103.177 108.043C103.177 109.438 104.308 110.569 105.703 110.569ZM105.703 132.707H127.696C129.091 132.707 130.222 131.576 130.222 130.181C130.222 128.786 129.091 127.655 127.696 127.655H105.703C104.308 127.655 103.177 128.786 103.177 130.181C103.177 131.576 104.308 132.707 105.703 132.707ZM105.703 88.4304H127.696C129.091 88.4304 130.222 87.2995 130.222 85.9046C130.222 84.5096 129.091 83.3788 127.696 83.3788H105.703C104.308 83.3788 103.177 84.5096 103.177 85.9046C103.177 87.2997 104.308 88.4304 105.703 88.4304ZM78.3785 88.0817L82.2108 91.9138C83.197 92.9 84.7961 92.9 85.7822 91.9138L85.796 91.8996L95.0013 83.5458C96.0311 82.6086 96.1061 81.0139 95.169 79.9841C94.2318 78.9544 92.6372 78.8793 91.6074 79.8165L84.0838 86.6442L81.9499 84.5103C80.9637 83.5242 79.3646 83.5242 78.3782 84.5103C77.3923 85.4964 77.3923 87.0956 78.3785 88.0817ZM78.3785 132.358L82.2108 136.19C83.197 137.176 84.7961 137.176 85.7822 136.19L85.796 136.176L95.0013 127.822C96.0311 126.885 96.1061 125.29 95.169 124.26C94.2318 123.231 92.6372 123.156 91.6074 124.093L84.0838 130.921L81.9499 128.787C80.9637 127.8 79.3646 127.8 78.3782 128.787C77.3923 129.773 77.3923 131.372 78.3785 132.358ZM78.3785 110.22L82.2108 114.052C83.197 115.038 84.7961 115.038 85.7822 114.052L85.796 114.038L95.0013 105.684C96.0311 104.747 96.1061 103.152 95.169 102.122C94.2318 101.093 92.6372 101.018 91.6074 101.955L84.0838 108.782L81.9499 106.648C80.9637 105.662 79.3646 105.662 78.3782 106.648C77.3923 107.635 77.3923 109.234 78.3785 110.22Z" fill="#FFC684"/>
    <path fill-rule="evenodd" clip-rule="evenodd" d="M85.6864 40C81.739 40 78.5302 43.2089 78.5302 47.1562V60.9851C78.5302 64.9324 81.739 68.1413 85.6864 68.1413H123.323C127.27 68.1413 130.479 64.9324 130.479 60.9851V47.1562C130.479 43.2089 127.27 40 123.323 40H85.6864ZM99.4587 53.1697C99.4587 51.7747 100.59 50.6439 101.985 50.6439H107.024C108.419 50.6439 109.55 51.7747 109.55 53.1697C109.55 54.5646 108.419 55.6955 107.024 55.6955H101.985C100.59 55.6955 99.4587 54.5646 99.4587 53.1697Z" fill="#FFC684"/>
  </g>
  <defs>
    <filter id="filter0_d_15507_8308" x="-19" y="-7" width="248" height="248" filterUnits="userSpaceOnUse" color-interpolation-filters="sRGB">
      <feFlood flood-opacity="0" result="BackgroundImageFix"/>
      <feColorMatrix in="SourceAlpha" type="matrix" values="0 0 0 0 0 0 0 0 0 0 0 0 0 0 0 0 0 0 127 0" result="hardAlpha"/>
      <feOffset dy="20"/>
      <feGaussianBlur stdDeviation="32"/>
      <feComposite in2="hardAlpha" operator="out"/>
      <feColorMatrix type="matrix" values="0 0 0 0 1 0 0 0 0 0.776471 0 0 0 0 0.517647 0 0 0 1 0"/>
      <feBlend mode="normal" in2="BackgroundImageFix" result="effect1_dropShadow_15507_8308"/>
      <feBlend mode="normal" in="SourceGraphic" in2="effect1_dropShadow_15507_8308" result="shape"/>
    </filter>
  </defs>
</svg>
