<svg xmlns="http://www.w3.org/2000/svg" width="229" height="206" viewBox="0 0 229 206" fill="none">
  <g filter="url(#filter0_d_15507_8342)">
    <path fill-rule="evenodd" clip-rule="evenodd" d="M161.381 58.453C164.084 63.7562 164.084 70.6985 164.084 84.5832V90.4548C164.084 98.8304 164.084 103.018 163.082 106.434C160.706 114.536 154.37 120.872 146.268 123.248C142.852 124.25 138.664 124.25 130.289 124.25H127.568L127.245 124.25C122.186 124.283 117.258 125.862 113.123 128.776L112.86 128.963L99.9153 138.21C95.4777 141.379 89.6463 136.801 91.6717 131.738C93.1064 128.152 90.4649 124.25 86.6018 124.25H83.6181C73.2898 124.25 64.917 115.877 64.917 105.548V84.5832C64.917 70.6985 64.917 63.7562 67.6191 58.453C69.996 53.7882 73.7886 49.9955 78.4535 47.6186C83.7567 44.9165 90.699 44.9165 104.584 44.9165H124.417C138.302 44.9165 145.244 44.9165 150.547 47.6186C155.212 49.9955 159.005 53.7882 161.381 58.453ZM94.667 70.9478C92.6132 70.9478 90.9482 72.6127 90.9482 74.6665C90.9482 76.7203 92.6132 78.3853 94.667 78.3853H134.334C136.387 78.3853 138.052 76.7203 138.052 74.6665C138.052 72.6127 136.387 70.9478 134.334 70.9478H94.667ZM94.667 93.2603C92.6132 93.2603 90.9482 94.9253 90.9482 96.979C90.9482 99.0327 92.6132 100.698 94.667 100.698H134.334C136.387 100.698 138.052 99.0327 138.052 96.979C138.052 94.9253 136.387 93.2603 134.334 93.2603H94.667Z" fill="#B790FF"/>
  </g>
  <defs>
    <filter id="filter0_d_15507_8342" x="-9" y="-10" width="248" height="248" filterUnits="userSpaceOnUse" color-interpolation-filters="sRGB">
      <feFlood flood-opacity="0" result="BackgroundImageFix"/>
      <feColorMatrix in="SourceAlpha" type="matrix" values="0 0 0 0 0 0 0 0 0 0 0 0 0 0 0 0 0 0 127 0" result="hardAlpha"/>
      <feOffset dy="20"/>
      <feGaussianBlur stdDeviation="32"/>
      <feComposite in2="hardAlpha" operator="out"/>
      <feColorMatrix type="matrix" values="0 0 0 0 0.717647 0 0 0 0 0.564706 0 0 0 0 1 0 0 0 1 0"/>
      <feBlend mode="normal" in2="BackgroundImageFix" result="effect1_dropShadow_15507_8342"/>
      <feBlend mode="normal" in="SourceGraphic" in2="effect1_dropShadow_15507_8342" result="shape"/>
    </filter>
  </defs>
</svg>
