<svg xmlns="http://www.w3.org/2000/svg" width="238" height="211" viewBox="0 0 238 211" fill="none">
  <g filter="url(#filter0_d_15620_64134)">
    <path d="M119.001 154.001C123.753 154.001 127.856 151.179 129.731 147.125H108.271C110.146 151.179 114.249 154.001 119.001 154.001Z" fill="#90FFBC"/>
    <path d="M115.778 125.641V99.5785C108.432 98.2811 102.888 92.6386 102.888 85.8947C102.888 84.1149 104.331 82.672 106.11 82.672C107.89 82.672 109.333 84.1149 109.333 85.8947C109.333 89.1622 112.027 91.9483 115.778 92.983V46.2026C113.566 44.7859 110.97 44 108.259 44C101.482 44 95.7006 48.8935 94.523 55.498C86.7622 57.7677 81.4033 64.8659 81.4033 73.004C81.4033 77.3555 82.9438 81.514 85.7612 84.8204C82.944 88.1269 81.4033 92.2854 81.4033 96.6369C81.4033 104.775 86.7622 111.873 94.523 114.143C95.7004 120.747 101.482 125.641 108.259 125.641H115.778Z" fill="#90FFBC"/>
    <path d="M102.887 135.309C102.887 138.275 105.291 140.68 108.258 140.68H129.742C132.709 140.68 135.113 138.275 135.113 135.309V132.086H102.887V135.309Z" fill="#90FFBC"/>
    <path d="M143.478 55.498C142.301 48.8937 136.52 44 129.742 44C127.031 44 124.435 44.7859 122.223 46.2026V70.0626C129.569 71.36 135.113 77.0025 135.113 83.7464C135.113 85.5262 133.67 86.9691 131.891 86.9691C130.111 86.9691 128.668 85.5262 128.668 83.7464C128.668 80.4789 125.974 77.6928 122.223 76.6581V125.641H129.742C136.519 125.641 142.301 120.748 143.478 114.143C151.239 111.873 156.598 104.775 156.598 96.6371C156.598 92.2856 155.057 88.1271 152.24 84.8207C155.057 81.5142 156.598 77.3557 156.598 73.0042C156.598 64.8659 151.239 57.7679 143.478 55.498Z" fill="#90FFBC"/>
    <path d="M164.335 62.2623C163.294 62.2623 162.272 61.7583 161.651 60.8267C160.664 59.3458 161.064 57.3449 162.545 56.3577L168.99 52.0608C170.471 51.0732 172.472 51.4736 173.459 52.9546C174.446 54.4355 174.046 56.4364 172.565 57.4236L166.12 61.7205C165.571 62.0868 164.95 62.2623 164.335 62.2623Z" fill="#90FFBC"/>
    <path d="M170.775 115.973C170.161 115.973 169.54 115.798 168.99 115.432L162.545 111.135C161.064 110.148 160.664 108.147 161.651 106.666C162.638 105.185 164.639 104.785 166.12 105.772L172.565 110.069C174.046 111.056 174.446 113.057 173.459 114.538C172.838 115.469 171.816 115.973 170.775 115.973Z" fill="#90FFBC"/>
    <path d="M73.6646 62.2621C73.0504 62.2621 72.4292 62.0868 71.8799 61.7205L65.4345 57.4235C63.9536 56.4363 63.5533 54.4355 64.5405 52.9545C65.528 51.4734 67.529 51.0733 69.0095 52.0608L75.4549 56.3577C76.9359 57.3449 77.3361 59.3458 76.3489 60.8267C75.728 61.7581 74.706 62.2621 73.6646 62.2621Z" fill="#90FFBC"/>
    <path d="M67.225 115.973C66.1837 115.973 65.1617 115.469 64.5405 114.538C63.5533 113.057 63.9536 111.056 65.4345 110.069L71.8799 105.772C73.3606 104.784 75.3617 105.185 76.3489 106.666C77.3361 108.146 76.9359 110.147 75.4549 111.135L69.0095 115.431C68.4604 115.798 67.8393 115.973 67.225 115.973Z" fill="#90FFBC"/>
    <path d="M73.669 86.9688H67.2237C65.4439 86.9688 64.001 85.5259 64.001 83.7461C64.001 81.9663 65.4439 80.5234 67.2237 80.5234H73.669C75.4488 80.5234 76.8917 81.9663 76.8917 83.7461C76.8917 85.5259 75.4488 86.9688 73.669 86.9688Z" fill="#90FFBC"/>
    <path d="M170.777 86.9688H164.332C162.552 86.9688 161.109 85.5259 161.109 83.7461C161.109 81.9663 162.552 80.5234 164.332 80.5234H170.777C172.557 80.5234 174 81.9663 174 83.7461C174 85.5259 172.557 86.9688 170.777 86.9688Z" fill="#90FFBC"/>
  </g>
  <defs>
    <filter id="filter0_d_15620_64134" x="-5" y="-5" width="248" height="248" filterUnits="userSpaceOnUse" color-interpolation-filters="sRGB">
      <feFlood flood-opacity="0" result="BackgroundImageFix"/>
      <feColorMatrix in="SourceAlpha" type="matrix" values="0 0 0 0 0 0 0 0 0 0 0 0 0 0 0 0 0 0 127 0" result="hardAlpha"/>
      <feOffset dy="20"/>
      <feGaussianBlur stdDeviation="32"/>
      <feComposite in2="hardAlpha" operator="out"/>
      <feColorMatrix type="matrix" values="0 0 0 0 0.564706 0 0 0 0 1 0 0 0 0 0.737255 0 0 0 1 0"/>
      <feBlend mode="normal" in2="BackgroundImageFix" result="effect1_dropShadow_15620_64134"/>
      <feBlend mode="normal" in="SourceGraphic" in2="effect1_dropShadow_15620_64134" result="shape"/>
    </filter>
  </defs>
</svg>
